REM MD5 4a0b29fc363b516fcd78679fa5ff082b
FILE "Aitakute... - Your Smiles in My Heart (Japan) (Disc 1).bin" BINARY
  TRACK 01 MODE2/2352
    FLAGS DCP
    INDEX 01 00:00:00
  TRACK 02 AUDIO
    FLAGS DCP
    INDEX 00 67:48:51
    INDEX 01 67:50:51
  TRACK 03 AUDIO
    FLAGS DCP
    INDEX 00 68:20:51
    INDEX 01 68:22:51
  TRACK 04 AUDIO
    FLAGS DCP
    INDEX 00 68:52:51
    INDEX 01 68:54:51
  TRACK 05 AUDIO
    FLAGS DCP
    INDEX 00 69:24:51
    INDEX 01 69:26:51
REM LEADOUT 69:56:48
